<svg fill="none" height="24" viewBox="0 0 24 24" width="24" xmlns="http://www.w3.org/2000/svg"><path d="m12 3c-4.91753 0-9 3.98969-9 9 0 5.0103 3.98969 9 9 9 5.0103 0 9-3.9897 9-9 0-5.01031-4.0825-9-9-9zm-6.7732 9c0-3.71134 3.06186-6.7732 6.7732-6.7732 1.4845 0 2.8763.46392 3.9897 1.29897l-9.46393 9.46393c-.83505-1.1134-1.29897-2.5052-1.29897-3.9897zm6.7732 6.7732c-1.4845 0-2.78351-.4639-3.89691-1.299l9.37111-9.37111c.8351 1.1134 1.299 2.41241 1.299 3.89691 0 3.7113-3.0619 6.7732-6.7732 6.7732z" fill="rgb(0,0,0)"/></svg>